<?xml version="1.0" encoding="UTF-8"?>
<svg width="54px" height="46px" viewBox="0 0 54 46" version="1.1" xmlns="http://www.w3.org/2000/svg" xmlns:xlink="http://www.w3.org/1999/xlink">
    <!-- Generator: Sketch 63 (92445) - https://sketch.com -->
    <title>天气icon_雨夹雪</title>
    <desc>Created with Sketch.</desc>
    <g id="页面-1" stroke="none" stroke-width="1" fill="none" fill-rule="evenodd">
        <g id="天气icon_雨夹雪" transform="translate(-5.000000, -10.000000)" fill-rule="nonzero">
            <rect id="矩形" fill="#000000" opacity="0" x="0" y="0" width="64" height="64"></rect>
            <path d="M20.8360267,44.6906667 C21.6976578,45.5631239 21.6976578,46.9662095 20.8360267,47.8386667 L15.6546933,53.0866667 C15.2443022,53.5026123 14.6843482,53.7367607 14.1000267,53.7367607 C13.5157052,53.7367607 12.9557511,53.5026123 12.54536,53.0866667 C11.6828506,52.2140508 11.6828506,50.8099492 12.54536,49.9373333 L17.7266933,44.6906667 C18.1370845,44.2747211 18.6970385,44.0405726 19.28136,44.0405726 C19.8656815,44.0405726 20.4256355,44.2747211 20.8360267,44.6906667 Z M50.5399931,50.3508936 L48.4774266,49.1345598 L50.3813337,47.8653431 C51.0159712,47.3893862 51.2804017,46.3845894 50.7515407,45.6970955 C50.3284508,44.9567186 49.3764947,44.7980646 48.5832031,45.2740215 L47.3668164,46.0672813 L47.3668164,44.5336419 C47.3668164,43.634611 46.6264078,43 45.7273399,43 C44.9340431,43 44.1936345,43.634611 44.1936345,44.5336419 L44.1936345,46.384586 L42.7128172,45.4326721 C41.9724086,44.9567152 41.0204525,45.2211351 40.5444797,45.908629 C40.0685069,46.596123 40.2800491,47.6538026 41.0204578,48.1297596 L42.7657055,49.1874393 L40.703139,50.5624271 C40.0156187,51.0383841 39.7511829,52.0431808 40.2800491,52.7306748 C40.5973679,53.2066317 41.0733459,53.4710516 41.602207,53.4710516 C41.8666375,53.4710516 42.1839562,53.3123975 42.501275,53.1537488 L44.1936397,51.937415 L44.1936397,53.8412432 C44.1936397,54.6873912 44.9340483,55.427768 45.7273451,55.427768 C46.6264131,55.427768 47.3668217,54.6873912 47.3668217,53.8412432 L47.3668217,52.0960674 L48.8476389,53.0479812 C49.0591865,53.2066353 49.3764999,53.2595182 49.6409357,53.2595182 C50.222685,53.2595182 50.7515513,53.0479812 50.9630936,52.5720243 C51.4390611,51.8316526 51.2275135,50.8268505 50.5399931,50.3508936 L50.5399931,50.3508936 Z M35.4906933,44.6906667 C36.3523245,45.5631239 36.3523245,46.9662095 35.4906933,47.8386667 L30.30936,53.0866667 C29.8989689,53.5026123 29.3390149,53.7367607 28.7546933,53.7367607 C28.1703718,53.7367607 27.6104178,53.5026123 27.2000267,53.0866667 C26.3375173,52.2140508 26.3375173,50.8099492 27.2000267,49.9373333 L32.38136,44.6906667 C32.7917512,44.2747211 33.3517052,44.0405727 33.9360267,44.0405727 C34.5203482,44.0405727 35.0803022,44.2747211 35.4906933,44.6906667 L35.4906933,44.6906667 Z" id="形状" fill="#17A0E6"></path>
            <path d="M48.1737269,40.0011313 C48.1337269,40.0011313 48.0947269,39.9951313 48.0547269,39.9941313 L48.0547269,40.0011313 L14.0547269,40.0011313 L14.0547269,39.9561313 C8.75218398,39.4525562 4.77496245,34.8810777 5.00989068,29.55986 C5.24481891,24.2386424 9.6094363,20.0354505 14.9357269,20.0011313 C15.7918282,20.0041198 16.6438121,20.1197798 17.4697269,20.3451313 C19.3996534,14.1893742 25.1035284,10 31.5547269,10 C38.0059253,10 43.7098004,14.1893742 45.6397269,20.3451313 C46.4656416,20.1197798 47.3176255,20.0041198 48.1737269,20.0011313 C53.6967269,20.0011313 58.1737269,24.4781313 58.1737269,30.0011313 C58.1737269,35.5241313 53.6967269,40.0011313 48.1737269,40.0011313 Z" id="路径" fill-opacity="0.9" fill="#FFFFFF"></path>
        </g>
    </g>
</svg>