<?xml version="1.0" encoding="UTF-8"?>
<svg width="96px" height="75px" viewBox="0 0 96 75" version="1.1" xmlns="http://www.w3.org/2000/svg" xmlns:xlink="http://www.w3.org/1999/xlink">
    <!-- Generator: Sketch 63 (92445) - https://sketch.com -->
    <title>icon-今日排水量</title>
    <desc>Created with Sketch.</desc>
    <defs>
        <linearGradient x1="50%" y1="0%" x2="50%" y2="100%" id="linearGradient-1">
            <stop stop-color="#02FFFF" offset="0%"></stop>
            <stop stop-color="#00A7FF" offset="100%"></stop>
        </linearGradient>
        <linearGradient x1="50%" y1="0%" x2="50%" y2="100%" id="linearGradient-2">
            <stop stop-color="#02FFFF" offset="0%"></stop>
            <stop stop-color="#00A7FF" offset="100%"></stop>
        </linearGradient>
    </defs>
    <g id="页面-1" stroke="none" stroke-width="1" fill="none" fill-rule="evenodd">
        <g id="今日交能_measurement" transform="translate(-1713.000000, -1264.000000)" fill-rule="nonzero">
            <g id="数据" transform="translate(1648.000000, 1020.000000)">
                <g id="今日排水量" transform="translate(0.000000, 208.000000)">
                    <g id="icon-今日排水量" transform="translate(65.495798, 36.840336)">
                        <path d="M48.5710468,0.640228813 C49.0188632,1.08217469 49.2535639,1.69216405 49.2158429,2.31606028 L49.2158429,57.8253807 C49.2535639,58.4492769 49.0188633,59.0592663 48.5710468,59.5012122 C48.1232303,59.9431581 47.5051382,60.174782 46.8729544,60.1375554 L37.4992313,60.1375554 C36.8670475,60.174782 36.2489554,59.9431581 35.8011389,59.5012122 C35.3533224,59.0592663 35.1186218,58.4492769 35.1563428,57.8253807 L35.1563428,2.31606028 C35.1186218,1.69216405 35.3533225,1.08217469 35.8011389,0.640228813 C36.2489554,0.198282937 36.8670475,-0.0333409461 37.4992313,0.00388559181 L46.8729544,0.00388559181 C47.5051381,-0.0333409461 48.1232303,0.198282937 48.5710468,0.640228813 Z M30.4683966,9.25472538 L30.4683966,50.8867157 L4.68794624,50.8867157 C2.41255106,50.260507 0.634526931,48.5057916 -9.66338121e-14,46.2602253 L-9.66338121e-14,13.8790748 C0.635181584,11.6343316 2.41309133,9.88054106 4.68794624,9.25472538 L30.4683966,9.25472538 Z" id="形状结合" fill="url(#linearGradient-1)"></path>
                        <path d="M67.7311696,44.4126265 L67.7544836,44.4325154 C68.379046,44.9661559 81.3524889,56.1017994 82.4957056,61.2979246 C83.0966554,63.9666257 82.5932337,66.7616627 81.0972051,69.0625091 C79.6011765,71.3633555 77.2363409,72.979611 74.5277155,73.5524506 L74.5298848,73.5545915 C68.9740332,74.8929866 63.3525672,71.605594 61.8739485,66.1534915 C60.7025043,60.8333488 67.7311696,44.4126265 67.7311696,44.4126265 Z M79.9185283,23.1341964 C79.9185283,23.1341964 92.3401758,27.5294693 94.2144865,30.7665138 C95.2941414,32.526068 95.5793632,34.6510208 95.0008605,36.6272785 C94.4223578,38.6035362 93.0329328,40.2510741 91.1687315,41.1713 L91.1687315,41.1734409 C89.4919597,42.343689 87.4118455,42.8064227 85.3884958,42.4592885 C83.3651461,42.1121544 81.5653125,40.983761 80.387106,39.3237012 C78.2785063,36.0866566 79.9185283,23.1341964 79.9185283,23.1341964 Z M57.65458,18.0452711 C57.65458,18.0452711 70.3105163,22.2093265 72.6534048,25.6775885 C73.7871965,27.3907036 74.1776114,29.4809423 73.7372575,31.4804181 C73.2969035,33.4798939 72.0625562,35.221624 70.3105163,36.3157331 C66.8787487,38.8005123 62.0567878,38.0766464 59.5288908,34.6972108 C57.1860023,31.2268079 57.65458,18.0452711 57.65458,18.0452711 Z" id="形状结合" fill="url(#linearGradient-2)"></path>
                    </g>
                </g>
            </g>
        </g>
    </g>
</svg>