<?xml version="1.0" encoding="UTF-8"?>
<svg width="76px" height="76px" viewBox="0 0 76 76" version="1.1" xmlns="http://www.w3.org/2000/svg" xmlns:xlink="http://www.w3.org/1999/xlink">
    <!-- Generator: Sketch 63 (92445) - https://sketch.com -->
    <title>icon_燃气用户数</title>
    <desc>Created with Sketch.</desc>
    <g id="页面-1" stroke="none" stroke-width="1" fill="none" fill-rule="evenodd">
        <g id="今日交能" transform="translate(-7086.000000, -898.000000)">
            <g id="用户数" transform="translate(7027.000000, 583.000000)">
                <g id="2" transform="translate(0.000000, 256.000000)">
                    <g id="icon_燃气用户数" transform="translate(59.000000, 59.000000)">
                        <rect id="矩形" fill-opacity="0.5" fill="#001667" opacity="0.01" x="0" y="0" width="76" height="76"></rect>
                        <path d="M50.3177899,63.9954331 L50.3177899,66.9955675 L57.9998906,66.9955675 L57.9998906,70 L24.7214793,70 L24.7214793,66.9955675 L33.20146,66.9955675 L33.20146,63.9954331 L50.3177899,63.9954331 L50.3177899,63.9954331 Z M54.7402101,40.3554063 C61.9211299,48.0792478 55.8748836,57.7458697 49.700335,56.1254533 C43.3373424,54.4491605 42.796067,61.713096 42.796067,61.713096 C36.2406209,49.7168569 44.2194208,44.5719274 49.3154281,44.9630624 C54.4114354,45.3584956 54.7402101,40.3597045 54.7402101,40.3597045 L54.7402101,40.3554063 Z M35.9759974,6 C58.0279568,11.2137005 58.3366842,36.181867 45.2298014,40.8024177 C31.7259835,45.5648086 39.2156307,59.4135662 39.2156307,59.4135662 C13.3065832,45.6593687 21.7905734,26.5410342 31.5054639,21.0135662 C41.2203543,15.4817999 35.9759974,6 35.9759974,6 Z" id="形状" fill-opacity="0.9" fill="#FFFFFF" fill-rule="nonzero"></path>
                    </g>
                </g>
            </g>
        </g>
    </g>
</svg>