<?xml version="1.0" encoding="UTF-8"?>
<svg width="54px" height="51px" viewBox="0 0 54 51" version="1.1" xmlns="http://www.w3.org/2000/svg" xmlns:xlink="http://www.w3.org/1999/xlink">
    <!-- Generator: Sketch 63 (92445) - https://sketch.com -->
    <title>天气icon_雷阵雨</title>
    <desc>Created with Sketch.</desc>
    <g id="页面-1" stroke="none" stroke-width="1" fill="none" fill-rule="evenodd">
        <g id="天气icon_雷阵雨" transform="translate(-5.000000, -10.000000)" fill-rule="nonzero">
            <rect id="矩形" fill="#000000" opacity="0" x="0" y="0" width="64" height="64"></rect>
            <path d="M20.8360267,44.6906667 C21.6976578,45.5631239 21.6976578,46.9662095 20.8360267,47.8386667 L15.6546933,53.0866667 C15.2443022,53.5026123 14.6843482,53.7367607 14.1000267,53.7367607 C13.5157052,53.7367607 12.9557511,53.5026123 12.54536,53.0866667 C11.6828506,52.2140508 11.6828506,50.8099492 12.54536,49.9373333 L17.7266933,44.6906667 C18.1370845,44.2747211 18.6970385,44.0405726 19.28136,44.0405726 C19.8656815,44.0405726 20.4256355,44.2747211 20.8360267,44.6906667 Z M50.14536,44.6906667 C51.0069911,45.5631239 51.0069911,46.9662095 50.14536,47.8386667 L44.9640267,53.0866667 C44.5536355,53.5026123 43.9936815,53.7367607 43.40936,53.7367607 C42.8250385,53.7367607 42.2650845,53.5026123 41.8546933,53.0866667 C40.9921839,52.2140508 40.9921839,50.8099492 41.8546933,49.9373333 L47.0360267,44.6906667 C47.4464178,44.2747211 48.0063718,44.0405727 48.5906933,44.0405727 C49.1750148,44.0405727 49.7349689,44.2747211 50.14536,44.6906667 L50.14536,44.6906667 Z" id="形状" fill="#17A0E6"></path>
            <path d="M26.9320267,53.144 C25.1080267,52.9613333 24.29736,50.7306667 25.5666933,49.3906667 L32.0280267,42.56 C32.4280979,42.133826 32.9825589,41.8861718 33.5669371,41.8726341 C34.1513154,41.8590964 34.7166498,42.0808094 35.1360267,42.488 C36.0120267,43.3373333 36.0400267,44.7466667 35.2000267,45.6346667 L31.86536,49.16 L34.7280267,49.4453333 C36.54936,49.628 37.36136,51.8533333 36.0960267,53.196 L29.6066933,60.084 C29.2073499,60.5108994 28.6532874,60.7595301 28.0689016,60.7740708 C27.4845157,60.7886115 26.9187737,60.5678437 26.4986933,60.1613333 C25.6208908,59.3072575 25.5894508,57.9072882 26.4280267,57.0146667 L29.8066933,53.4293333 L26.9320267,53.144 L26.9320267,53.144 Z" id="路径" fill="#F2E018"></path>
            <path d="M48.1737269,40.0011313 C48.1337269,40.0011313 48.0947269,39.9951313 48.0547269,39.9941313 L48.0547269,40.0011313 L14.0547269,40.0011313 L14.0547269,39.9561313 C8.75218398,39.4525562 4.77496245,34.8810777 5.00989068,29.55986 C5.24481891,24.2386424 9.6094363,20.0354505 14.9357269,20.0011313 C15.7918282,20.0041198 16.6438121,20.1197798 17.4697269,20.3451313 C19.3996534,14.1893742 25.1035284,10 31.5547269,10 C38.0059253,10 43.7098004,14.1893742 45.6397269,20.3451313 C46.4656416,20.1197798 47.3176255,20.0041198 48.1737269,20.0011313 C53.6967269,20.0011313 58.1737269,24.4781313 58.1737269,30.0011313 C58.1737269,35.5241313 53.6967269,40.0011313 48.1737269,40.0011313 Z" id="路径" fill-opacity="0.9" fill="#FFFFFF"></path>
        </g>
    </g>
</svg>