<?xml version="1.0" encoding="UTF-8"?>
<svg width="76px" height="76px" viewBox="0 0 76 76" version="1.1" xmlns="http://www.w3.org/2000/svg" xmlns:xlink="http://www.w3.org/1999/xlink">
    <!-- Generator: Sketch 63 (92445) - https://sketch.com -->
    <title>icon_停车用户数</title>
    <desc>Created with Sketch.</desc>
    <g id="页面-1" stroke="none" stroke-width="1" fill="none" fill-rule="evenodd">
        <g id="今日交能" transform="translate(-7086.000000, -1154.000000)">
            <g id="用户数" transform="translate(7027.000000, 583.000000)">
                <g id="3" transform="translate(0.000000, 512.000000)">
                    <g id="icon_停车用户数" transform="translate(59.000000, 59.000000)">
                        <rect id="矩形" fill-opacity="0.5" fill="#001667" opacity="0.01" x="0" y="0" width="76" height="76"></rect>
                        <path d="M55.1025989,50.5847321 C58.2174096,50.5836722 60.7843596,53.0820883 60.876299,56.0234671 C60.9825459,59.4506141 58.1749506,62.0857291 55.1468464,61.9978655 C51.928637,61.9974679 49.4427632,59.4831489 49.4466667,56.2319943 C49.4498507,53.106539 51.9746729,50.5857264 55.1025989,50.5847321 Z M26.5743228,56.2224526 C26.5560849,59.4467047 24.0858434,61.9961427 20.9363236,61.9974695 C17.6459802,61.9997208 15.1710358,59.5366225 15.1667243,56.2539271 C15.1622261,53.2059986 17.6880419,50.6611328 20.6336788,50.5726727 C23.9753572,50.4720867 26.5918539,53.1865838 26.5743228,56.2224526 Z M55.1638035,54.1357234 C54.0273454,54.1233987 52.9950808,55.1511253 52.9961398,56.2928892 C52.9975316,57.4130516 53.9817731,58.4171889 55.11068,58.4511814 C56.2238884,58.4844451 57.2890736,57.4499597 57.3078191,56.3170087 C57.3269621,55.1815397 56.311191,54.148512 55.1638035,54.1357234 Z M20.8287519,54.1424159 C19.6944134,54.1594453 18.7133513,55.1564263 18.7169185,56.2889797 C18.7204389,57.4441948 19.745086,58.4674157 20.8772386,58.4461455 C22.0515191,58.4238814 23.0222479,57.4367735 23.0177593,56.2694987 C23.013107,55.1278011 21.9810411,54.1247239 20.8287519,54.1424159 Z M48.7001605,36.8292307 C50.049245,37.0345773 51.2925463,37.5422782 52.4399338,38.2475068 C54.2172518,39.3401041 55.9894031,40.449267 57.6969717,41.6466911 C58.6380917,42.3066626 59.5582142,42.5870179 60.6727473,42.2849949 C61.1777514,42.1484285 61.7107746,42.1150324 62.2306825,42.0336624 C62.9034694,41.9285043 63.3596557,42.1766563 63.4615971,42.7048985 C63.5716859,43.2767412 63.2396973,43.6894885 62.5588293,43.8257898 C62.4253582,43.852361 62.2915559,43.87436 62.1581511,43.8980156 C62.1515273,43.9287611 62.1455658,43.9588442 62.139803,43.9892585 C62.6757407,44.1846657 63.2069092,44.3921327 63.7473511,44.5730284 C64.9471335,44.97524 65.0928587,45.1654125 65.1155124,46.4430802 C65.119023,46.6200665 65.116241,46.7971853 65.116241,47.0357293 C64.3464806,47.0357293 63.6237496,47.0325487 62.9010849,47.0364581 C62.2845347,47.0396387 61.8775639,47.3558419 61.8563675,47.8387608 C61.8339788,48.3404318 62.2630071,48.7209756 62.884459,48.7287946 C63.6068588,48.7380713 64.3291922,48.7308487 65.1141876,48.7308487 L65.1141876,51.5660755 L65.1141876,51.5660755 C65.113459,52.0393864 65.1255144,52.5127635 65.1049142,52.9850142 C65.0900767,53.3146686 65.1975822,53.5153768 65.4567081,53.7522641 C65.7178875,53.9912718 65.8371172,54.4019649 65.9727079,54.7552087 C66.0335813,54.9134428 65.9716481,55.1160064 65.9850946,55.2969022 C66.0912753,56.7580498 65.3990142,57.0713375 64.2993185,57.1785497 C63.868568,57.2203612 63.4400695,57.276684 62.9597724,57.332278 C63.1455721,54.5498621 62.3163955,52.2064333 60.2147726,50.3962164 C58.6770402,49.0721652 56.8728293,48.4631493 54.8420157,48.5298091 C53.3303813,48.5793732 51.9575833,49.0576537 50.7174616,49.9049485 C49.455746,50.7659595 48.5348287,51.9137532 47.9438467,53.3277885 C47.3644564,54.7145899 47.1881951,56.1516182 47.425661,57.6700827 L28.6163085,57.6700827 C28.9832711,54.6144016 28.0411575,52.0642347 25.6303322,50.1499862 C23.9622419,48.8254711 22.0140279,48.3404981 19.9000847,48.5751989 C16.1177199,48.9943735 12.2544114,52.717845 13.1842047,58.0386994 C12.3743698,57.9066388 11.5961308,57.7929992 10.824317,57.6429153 C10.6628932,57.6113744 10.5050462,57.4665253 10.3832332,57.3376453 C9.81132783,56.7336654 9.91048727,54.8778601 10.4994159,54.2954154 C10.6685897,54.1283022 10.7942446,53.8524526 10.8172294,53.6149026 C10.8985706,52.7825832 10.9368566,51.9459567 10.9693798,51.1100591 C10.9853433,50.7093716 11.0925839,50.489845 11.5575798,50.4555211 C12.1334594,50.4126495 12.7010593,50.2642884 13.2712424,50.1545582 C13.8202291,50.0488037 14.1614249,49.6200211 14.066571,49.168908 C13.9653582,48.6910251 13.5236782,48.4229945 12.9821765,48.5168218 C12.3925192,48.6187993 11.8035906,48.7257465 11.215788,48.830507 C11.0739046,48.27576 11.2458603,47.9036977 11.8206802,47.5279911 C13.4741979,46.4460619 15.2791374,45.670728 17.167604,45.1491782 C19.29506,44.5614988 21.4669622,44.1358967 23.6163432,43.6260754 C23.8491723,43.5712103 24.0947856,43.4671124 24.2764122,43.3159021 C26.700419,41.294375 29.3179755,39.5772565 32.1521327,38.1833649 C34.6316476,36.9640743 37.2931203,36.5725309 40.0033447,36.3990565 C42.9171208,36.2127935 45.8157945,36.3897798 48.7001605,36.8292307 Z M41.4464882,47.0369219 C40.9173731,47.0503069 40.5592202,47.4022916 40.5468336,47.8685787 C40.5345132,48.3277095 40.8929972,48.6898986 41.4214499,48.7207105 C41.7653616,48.7408543 42.1107303,48.7242225 42.4554368,48.7242225 L42.4554368,48.7291922 C42.800077,48.7291922 43.1448497,48.7291922 43.4899535,48.7288608 C43.5259874,48.7288608 43.5621537,48.7264091 43.5982539,48.7207105 C44.0933885,48.6425212 44.463928,48.230039 44.425377,47.8005937 C44.3871573,47.3679016 44.0176775,47.0461324 43.5151242,47.0376507 C42.8257113,47.0263199 42.1352387,47.0188985 41.4464882,47.0369219 Z M26.8786013,44.7628696 C32.3763508,46.0094603 37.8223678,45.3523381 43.3052799,45.0659529 C43.4514026,43.0556242 43.5936171,41.1024134 43.7362291,39.1424439 C37.2631141,38.4138248 31.7902042,40.5721171 26.8786013,44.7628696 Z M45.5539527,39.3000154 C45.4165736,41.1626457 45.2800555,43.0170596 45.142014,44.8924122 C47.6732614,44.6788492 50.1364816,44.4707859 52.6803805,44.2558313 C50.875441,41.6617989 48.6839983,39.8459497 45.5539527,39.3000154 Z M33.5866651,6.00000767 C35.2037515,5.99610589 36.8345494,7.48236694 36.8526326,9.18808837 C36.8734978,11.149118 36.8523014,13.110214 36.8585941,15.0712437 C36.8678013,17.6868776 36.8904549,20.3025115 36.8986023,22.9182116 C36.9052924,25.0977077 36.9597407,27.279258 36.8823076,29.4562362 C36.8104386,31.4700768 34.964431,32.8546917 33.3282678,32.7845863 C32.0949024,32.7318415 30.8576289,32.7604668 29.6228062,32.7569549 C28.6251183,32.7537743 27.6274965,32.7527141 26.6294112,32.7569549 L22.8697663,32.7842549 L22.8697663,32.7842549 C22.0529101,32.7892246 21.2357227,32.790351 20.4185353,32.7906161 C18.275977,32.7913449 16.1336835,32.8091032 13.9914563,32.7822008 C13.1016712,32.7712675 12.2342087,32.7279983 11.4566983,32.0953931 C10.4869631,31.305879 10.0311743,30.302073 10.0254778,29.1295635 C9.99613397,22.6311637 9.98586699,16.1323664 10.0289884,9.63390028 C10.0403152,7.95680411 10.7778836,6.58206231 12.6939718,6.08390313 C12.9003717,6.03016451 13.1201518,6.00571376 13.3339042,6.00571376 C16.6999585,6.00067798 20.066344,6.00246704 23.4328619,6.00246704 C26.8176617,6.00246704 30.2021965,6.00783429 33.5866651,6.00000767 Z M32.681314,8.71948221 L13.7333901,8.76295009 C13.222292,8.76831734 12.8719553,9.12474169 12.8652652,9.61508195 C12.8525665,10.500798 12.8546104,18.4595469 12.8560355,23.9085099 L12.856,26.842 L12.857198,26.5798414 C12.8579338,25.8181798 12.8588775,24.9466126 12.8598584,24.0750501 L12.86,23.908 L12.8600103,27.1924125 C12.8597736,27.6738104 12.8594114,28.085378 12.8588537,28.3890278 L12.8580943,28.8874119 C12.8580388,28.9081083 12.8579748,28.9294443 12.8579044,28.9507799 L12.857,28.974 L12.8677237,29.0949796 C12.9456526,29.7870091 13.3141858,30.0391613 14.0437849,30.0304644 C15.6763712,30.0103207 17.3097524,29.9968695 18.9426699,29.9919661 C21.0658204,29.9855386 23.1896332,29.9894481 25.3128499,29.9909059 C26.147723,29.9916347 26.9825299,29.9975984 27.8170719,30.0018392 C29.559482,30.0113809 31.3024221,30.0478914 33.0445011,30.0178084 C33.7162282,30.0064776 34.0651076,29.7186346 34.0439112,28.9649021 C33.9939672,27.1684677 34.042454,25.3702443 34.0439112,23.5731473 C34.0463621,20.9766632 34.0353665,18.380444 34.0439112,15.7839599 L34.0439112,9.8484575 L34.0439112,9.8484575 C34.0466933,9.05039561 33.807174,8.78276258 33.0086659,8.72153631 C32.9003655,8.71298852 32.7906742,8.71802443 32.681314,8.71948221 Z M24.2656154,11.5003739 C26.4914359,11.5644495 28.4067954,12.3571441 29.3726225,14.5015876 C30.8686245,17.8229139 29.4331647,21.8468845 25.0092115,22.5379329 C23.8703688,22.7160457 22.6910542,22.636001 21.529889,22.6725114 C21.3330936,22.6784751 21.1359672,22.6732403 20.8741254,22.6732403 L20.8741254,27.4520036 L17.3441303,27.4520036 L17.3441303,11.5293968 C17.5182057,11.5131625 17.6732044,11.4862601 17.8286005,11.4862601 C19.9744046,11.484471 22.1215997,11.4391477 24.2656154,11.5003739 Z M20.8941958,14.5490975 C20.8937983,16.2746314 20.8937983,17.885134 20.8937983,19.5686576 C21.8394889,19.5686576 22.7277505,19.573561 23.6157471,19.5644168 C23.8316191,19.5626277 24.0488822,19.5215452 24.2634295,19.4847697 C25.4752673,19.2755136 26.2751001,18.3925699 26.3098093,17.230596 C26.3497513,15.9071411 25.668552,14.9190393 24.3827255,14.7310535 C23.2452076,14.565398 22.078677,14.6029024 20.8941958,14.5490975 Z" id="形状结合" fill-opacity="0.9" fill="#FFFFFF" fill-rule="nonzero"></path>
                    </g>
                </g>
            </g>
        </g>
    </g>
</svg>