<?xml version="1.0" encoding="UTF-8"?>
<svg width="96px" height="96px" viewBox="0 0 96 96" version="1.1" xmlns="http://www.w3.org/2000/svg" xmlns:xlink="http://www.w3.org/1999/xlink">
    <!-- Generator: Sketch 63 (92445) - https://sketch.com -->
    <title>icon-停车量</title>
    <desc>Created with Sketch.</desc>
    <defs>
        <linearGradient x1="50%" y1="0%" x2="50%" y2="100%" id="linearGradient-1">
            <stop stop-color="#02FFFF" offset="0%"></stop>
            <stop stop-color="#00A7FF" offset="100%"></stop>
        </linearGradient>
        <linearGradient x1="50%" y1="0%" x2="50%" y2="100%" id="linearGradient-2">
            <stop stop-color="#02FFFF" offset="0%"></stop>
            <stop stop-color="#00A7FF" offset="100%"></stop>
        </linearGradient>
    </defs>
    <g id="页面-1" stroke="none" stroke-width="1" fill="none" fill-rule="evenodd">
        <g id="今日交能_measurement" transform="translate(-1713.000000, -1461.000000)" fill-rule="nonzero">
            <g id="数据" transform="translate(1648.000000, 1020.000000)">
                <g id="停车订单数量" transform="translate(0.000000, 416.000000)">
                    <g id="icon-停车量" transform="translate(65.495798, 25.495798)">
                        <path d="M76.7502207,75.8689768 C82.0506339,75.8671733 86.4187632,80.1186796 86.5752146,85.1239671 C86.756013,90.955877 81.9783822,95.4400013 76.8255159,95.2904854 C71.3491512,95.2898088 67.1189878,91.0112407 67.1256302,85.4788138 C67.1310485,80.160287 71.4274896,75.8706688 76.7502207,75.8689768 Z M28.2042047,85.4625769 C28.1731697,90.9492244 23.9696075,95.2875538 18.6101306,95.2898115 C13.0110168,95.2936426 8.79945176,91.1022358 8.79211489,85.5161364 C8.78446034,80.3295354 13.0825922,75.9989864 18.0951257,75.8484557 C23.7815952,75.6772904 28.234037,80.2964977 28.2042047,85.4625769 Z M76.8543714,81.9116302 C74.9204827,81.8906574 73.1638979,83.63952 73.1657,85.5824375 C73.1680684,87.4885962 74.8429332,89.1973172 76.7639723,89.2551616 C78.6582974,89.3117658 80.4709026,87.551402 80.5028014,85.6234811 C80.5353767,83.6912755 78.8068586,81.9333923 76.8543714,81.9116302 Z M18.4270778,81.9230187 C16.4967958,81.9519973 14.8273416,83.6485406 14.8334117,85.5757848 C14.8394023,87.5415921 16.5830246,89.2827872 18.5095867,89.2465921 C20.507837,89.2087057 22.1597075,87.5289633 22.1520693,85.5426343 C22.1441526,83.5998296 20.387906,81.8929125 18.4270778,81.9230187 Z M65.8553152,52.461506 C68.1510262,52.8109403 70.2667279,53.6748852 72.2192151,54.874959 C75.2436427,56.7342108 78.2592784,58.6216518 81.1650148,60.6592854 C82.7665006,61.7823461 84.3322552,62.2594213 86.2288346,61.7454745 C87.0881904,61.5130822 87.9952256,61.4562526 88.8799429,61.3177869 C90.0248114,61.1388414 90.8010947,61.5611167 90.9745665,62.4600163 C91.1619025,63.43311 90.5969639,64.135474 89.4383439,64.3674154 C89.2112188,64.412631 88.98353,64.4500663 88.7565177,64.4903207 C88.745246,64.5426397 88.7351014,64.5938315 88.7252951,64.6455869 L90.5455441,65.3185129 C90.8494756,65.4287351 91.1542754,65.536368 91.4608286,65.638977 C93.502475,66.3234126 93.7504529,66.6470254 93.7890022,68.8212078 C93.7949762,69.1223821 93.790242,69.4237817 93.790242,69.8297074 C92.4803556,69.8297074 91.2504983,69.824295 90.0207537,69.8309476 C88.9715821,69.83636 88.2790478,70.3744369 88.2429782,71.1962105 C88.2048799,72.0498945 88.9349491,72.6974586 89.9924618,72.7107639 C91.2217554,72.7265499 92.4509364,72.7142593 93.7867478,72.7142593 C93.7867478,74.3977228 93.787875,75.9676399 93.7867478,77.53891 C93.785508,78.344334 93.8060224,79.1498707 93.7709674,79.9534905 C93.7457187,80.514457 93.9286587,80.8559983 94.3696084,81.2591049 C94.8140522,81.6658197 95.0169432,82.3646882 95.2476753,82.9657964 C95.3512623,83.2350603 95.2458718,83.5797587 95.2687534,83.8875856 C95.449439,86.3739924 94.2714317,86.907108 92.4001008,87.0895489 C91.667101,87.1606986 90.9379334,87.2565421 90.1206211,87.3511453 C90.4367929,82.616362 89.0257991,78.6285945 85.4495081,75.5481834 C82.8327785,73.2950711 79.7625876,72.2587205 76.3067914,72.3721542 C73.7344724,72.4564965 71.3984086,73.2703772 69.2881174,74.7122023 C67.1410804,76.177368 65.5739732,78.1305464 64.5683106,80.5367829 C63.5823733,82.8966761 63.2824329,85.3420394 63.686524,87.925981 L31.6790124,87.9259811 C32.3034656,82.7261876 30.700289,78.3866179 26.5978342,75.1291782 C23.7592772,72.8752765 20.4440392,72.0500073 16.8467827,72.449393 C10.4104057,73.1626944 3.83628839,79.498854 5.41849957,88.5532489 C4.04041916,88.3285241 2.71610495,88.1351457 1.40272423,87.8797508 C1.12803246,87.8260784 0.859427362,87.5795914 0.65214046,87.3602788 C-0.32105979,86.3324978 -0.152322088,83.1745098 0.849846404,82.1833749 C1.1377261,81.8990016 1.35155063,81.4295937 1.39066347,81.0253595 C1.52908018,79.6090176 1.59423071,78.1853465 1.64957482,76.7629157 C1.67673968,76.0810735 1.85922884,75.7075093 2.65050346,75.6491011 C3.6304667,75.5761472 4.59634032,75.323684 5.56660992,75.1369583 C6.50081002,74.9569979 7.08141624,74.2273468 6.92000528,73.4596964 C6.7477734,72.6464923 5.99617514,72.1903898 5.07471213,72.3500539 C4.07130368,72.523587 3.06913519,72.705577 2.06888287,72.883846 C1.82744263,71.9398437 2.12005647,71.3067125 3.09821622,70.6673798 C5.91197548,68.8262818 8.98340613,67.5069111 12.1969733,66.6193999 C15.8172239,65.6193572 19.5131079,64.8951184 23.170668,64.0275653 C23.5668689,63.9342024 23.9848243,63.757061 24.2938948,63.4997494 C28.4187803,60.0597558 32.8730255,57.1377684 37.695856,54.76581 C41.9151986,52.6909667 46.4441753,52.024685 51.0561118,51.729487 C56.0144282,51.4125267 60.9470452,51.7137009 65.8553152,52.461506 Z M53.5118812,69.8317368 C52.6114963,69.8545138 52.0020344,70.4534794 51.9809563,71.2469511 C51.9599909,72.0282451 52.5700163,72.6445753 53.469274,72.6970074 C54.0545018,72.7312857 54.6422092,72.7029837 55.2287895,72.7029837 L55.2287895,72.7114404 L56.9892066,72.7108766 L56.9892066,72.7108766 C57.0505248,72.7108766 57.1120683,72.7067046 57.1734992,72.6970074 C58.0160602,72.5639541 58.6466002,71.8620412 58.5809987,71.1312624 C58.5159609,70.3949586 57.8872244,69.8474101 57.0320391,69.8329771 C55.8588785,69.8136957 54.6839145,69.8010668 53.5118812,69.8317368 Z M28.7219896,65.962026 C38.0774036,68.0833254 47.3447856,66.9651132 56.674951,66.4777771 C56.9236052,63.0568394 57.165609,59.7330985 57.408289,56.3978563 C46.3931143,55.1579792 37.0799693,58.8307035 28.7219896,65.962026 Z M60.5014742,56.6659926 C60.2676988,59.8355946 60.0353886,62.9912148 59.800486,66.1824662 C64.1078607,65.8190501 68.2994749,65.4649928 72.6283785,65.0992087 C69.5569479,60.6849939 65.8278123,57.5949984 60.5014742,56.6659926 Z" id="形状结合" fill="url(#linearGradient-1)"></path>
                        <path d="M40.1369721,1.30433951e-05 C42.8887369,-0.00662652328 45.6638341,2.52251517 45.6946059,5.42510836 C45.7301117,8.76215466 45.6940422,12.0993137 45.7047505,15.43636 C45.7204182,19.8873337 45.7589674,24.3383074 45.7728316,28.7893938 C45.7842161,32.4982002 45.8768697,36.2105021 45.7451033,39.9150238 C45.6228051,43.3419375 42.4814897,45.6981098 39.6972624,45.5788127 C37.5984684,45.4890581 35.4930239,45.5377692 33.3917501,45.531793 C31.6940038,45.5263806 29.9963701,45.5245765 28.2979476,45.531793 C26.1660147,45.5421666 24.0334054,45.5656201 21.9002326,45.5782489 C20.5102042,45.5867057 19.1196121,45.5886225 17.7290202,45.5890735 C14.08307,45.5903138 10.4375707,45.6205327 6.79218401,45.5747534 C5.27805401,45.5561484 3.80190969,45.4825181 2.47883533,44.406026 C0.828655635,43.0625253 0.0530486439,41.3543679 0.0433550022,39.3591311 C-0.00657875203,28.3009298 -0.0240498658,17.242052 0.0493289881,6.18373788 C0.068603588,3.32985573 1.32370955,0.990484191 4.58427967,0.142776332 C4.93550642,0.0513303619 5.30950206,0.00972299154 5.67324042,0.00972299154 C11.4011899,0.00115370238 17.1297029,0.00419811455 22.8584414,0.00419811455 C28.6182898,0.00419811455 34.3776873,0.0133314613 40.1369721,1.30433951e-05 Z M38.5963537,4.62769032 L6.35303783,4.70165877 C5.48331195,4.71079212 4.88715078,5.31731254 4.87576634,6.15171508 C4.85087811,7.88764406 4.85926857,25.5898055 4.86100028,34.3438586 L4.861,35.351 L4.86205487,35.003548 C4.86330447,33.711428 4.86490372,32.2346917 4.86656581,30.7579635 L4.867,30.379 L4.86701359,35.6303305 C4.86648081,37.0032923 4.86545401,38.1005564 4.86344446,38.6566495 L4.86283705,38.6737325 L4.86283705,38.6737325 L4.862,38.717 L4.863,38.673 L4.86324065,39.0548986 L4.86324065,39.0548986 L4.862,39.099 L4.87248776,39.2276727 C4.98736447,40.4602988 5.61449516,40.9072765 6.8812306,40.8921768 C9.6593712,40.8578987 12.4388643,40.835009 15.2175686,40.826665 C18.8304927,40.8157275 22.4445439,40.8223801 26.0575807,40.8248608 C27.4782682,40.8261011 28.8988429,40.8362493 30.3189668,40.8434658 C33.2839925,40.8597028 36.24992,40.921832 39.2143821,40.8706403 C40.3574471,40.8513589 40.9511285,40.361542 40.915059,39.0789301 C40.8300703,36.0219724 40.9125792,32.9619703 40.915059,29.9038851 C40.9192295,25.4854983 40.9005186,21.0675623 40.915059,16.6491755 C40.9264435,13.282023 40.9036746,9.91543439 40.915059,6.54884575 C40.9197932,5.19079925 40.5122078,4.7353733 39.153402,4.63118574 C38.9691094,4.61664013 38.7824497,4.62520964 38.5963537,4.62769032 Z M24.275522,9.35988002 C28.0631577,9.46891612 31.3224879,10.8178293 32.9660173,14.4669873 C35.511735,20.118824 33.0690409,26.9663371 25.5408851,28.1422808 C23.6029385,28.4453719 21.5961216,28.3091613 19.6201892,28.3712905 C19.2853064,28.3814387 18.9498601,28.3725308 18.5042891,28.3725308 L18.5042891,36.5044599 L12.4973646,36.5044599 L12.4973646,9.40926761 C12.7935854,9.38164213 13.0573435,9.33586278 13.3217781,9.33586278 C16.9732515,9.33281837 20.6270919,9.25569245 24.275522,9.35988002 Z M18.5384425,14.5478339 C18.5377661,17.4841417 18.5377661,20.2247029 18.5377661,23.0895224 C20.1470294,23.0895224 21.658567,23.0978665 23.1696536,23.0823059 C23.536999,23.0792615 23.9067113,23.0093521 24.2718023,22.9467719 C26.3339633,22.590685 27.6950233,21.0881967 27.7540872,19.1108881 C27.8220557,16.8587906 26.6628721,15.1773568 24.474806,14.857465 C22.5391138,14.5755723 20.5540513,14.6393927 18.5384425,14.5478339 Z" id="形状结合" fill="url(#linearGradient-2)"></path>
                    </g>
                </g>
            </g>
        </g>
    </g>
</svg>