<?xml version="1.0" encoding="UTF-8"?>
<svg width="84px" height="92px" viewBox="0 0 84 92" version="1.1" xmlns="http://www.w3.org/2000/svg" xmlns:xlink="http://www.w3.org/1999/xlink">
    <!-- Generator: Sketch 63 (92445) - https://sketch.com -->
    <title>icon-今日客流量</title>
    <desc>Created with Sketch.</desc>
    <defs>
        <linearGradient x1="50%" y1="0%" x2="50%" y2="100%" id="linearGradient-1">
            <stop stop-color="#02FFFF" offset="0%"></stop>
            <stop stop-color="#00A7FF" offset="100%"></stop>
        </linearGradient>
        <linearGradient x1="50%" y1="0%" x2="50%" y2="100%" id="linearGradient-2">
            <stop stop-color="#02FFFF" offset="0%"></stop>
            <stop stop-color="#00A7FF" offset="100%"></stop>
        </linearGradient>
        <linearGradient x1="50%" y1="0%" x2="50%" y2="100%" id="linearGradient-3">
            <stop stop-color="#02FFFF" offset="0%"></stop>
            <stop stop-color="#00A7FF" offset="100%"></stop>
        </linearGradient>
    </defs>
    <g id="页面-1" stroke="none" stroke-width="1" fill="none" fill-rule="evenodd">
        <g id="今日交能_measurement" transform="translate(-1718.000000, -1047.000000)" fill-rule="nonzero">
            <g id="数据" transform="translate(1648.000000, 1020.000000)">
                <g id="今日客流量">
                    <g id="icon-今日客流量" transform="translate(69.600000, 27.200000)">
                        <path d="M74.36812,25.8878396 C79.4779666,25.9330595 83.6381957,30.1837284 83.6381957,35.3840148 L83.6381957,50.216136 C83.6381957,53.8337265 81.6033011,57.0443381 78.6187889,58.5818141 L78.6187889,87.6129781 L71.1122885,87.6129781 L68.3538757,69.2537062 L65.595463,87.6129781 L58.722041,87.6129781 L58.722041,61.3854467 C61.6161134,58.5365941 63.1988093,54.6024644 63.1988092,50.577895 L63.1988092,34.4343972 C63.1988092,31.4046651 62.2944116,28.5558126 60.8021555,26.1591589 C61.4804537,25.9782794 62.2039718,25.8878396 62.9274899,25.8878396 L74.36812,25.8878396 Z M68.3990956,4.22751627 C73.7802615,4.22751627 78.16659,8.65906472 78.16659,14.1758902 C78.16659,19.6927158 73.7802615,24.1242642 68.3990956,24.1242642 C63.0179297,24.1242642 58.6316012,19.6927158 58.6316012,14.1758902 C58.5863813,8.70428458 62.9727098,4.22751627 68.3990956,4.22751627 Z" id="形状结合" fill="url(#linearGradient-1)"></path>
                        <path d="M48.1858085,24.1694842 C53.7478539,24.1694842 58.2698421,28.7819121 58.2698421,34.4343972 L58.2698421,50.6231149 C58.2698421,54.4668048 56.1445077,57.9939556 52.7530166,59.757531 L52.7530166,91.3210084 L45.2465162,91.3210084 L42.2620041,71.3338207 L39.2774918,91.3210084 L31.0926933,91.3210084 L31.0926933,59.7123111 C27.746422,57.9035158 25.6210875,54.421585 25.6210875,50.577895 L25.6663075,34.4343972 C25.6663075,28.781912 30.2335155,24.1694842 35.750341,24.1694842 L48.1858085,24.1694842 Z M42.2620041,0.564705882 C48.1405887,0.564705882 52.8886762,5.40323324 52.8886762,11.3722576 C52.8886762,17.341282 48.1405886,22.1798094 42.2620041,22.1798094 C36.3834195,22.1798094 31.6353318,17.341282 31.6353318,11.3722576 C31.6353318,5.40323324 36.3834194,0.564705882 42.2620041,0.564705882 Z" id="形状结合" fill-opacity="0.9" fill="url(#linearGradient-2)"></path>
                        <path d="M21.1443193,25.9330595 C21.8678374,25.9330595 22.5913555,26.0234993 23.2696537,26.2043788 C21.7623243,28.5299728 20.9112471,31.2657243 20.8726728,34.0600698 L20.873,50.6683348 C20.873,54.8285639 22.5461356,58.6722538 25.3497683,61.4758865 L25.3497683,87.7034179 L18.4763463,87.7034179 L15.7179335,69.3441459 L12.9595206,87.7034179 L5.45302033,87.7034179 L5.45302033,58.6722538 C2.37806838,56.9991182 0.433613445,53.7885066 0.433613445,50.3065757 L0.433613445,35.3840148 C0.433613445,30.1837284 4.59384256,25.9330595 9.70368916,25.9330595 L21.1443193,25.9330595 Z M15.7179335,4.22751627 C21.0990994,4.22751627 25.4854279,8.65906472 25.4854279,14.1758902 C25.4854279,19.6927158 21.0990994,24.1242642 15.7179335,24.1242642 C10.3367676,24.1242642 5.95043905,19.6927158 5.95043905,14.1758902 C5.95043905,8.70428458 10.2915477,4.22751627 15.7179335,4.22751627 Z" id="形状结合" fill="url(#linearGradient-3)"></path>
                    </g>
                </g>
            </g>
        </g>
    </g>
</svg>