<?xml version="1.0" encoding="UTF-8"?>
<svg width="48px" height="48px" viewBox="0 0 48 48" version="1.1" xmlns="http://www.w3.org/2000/svg" xmlns:xlink="http://www.w3.org/1999/xlink">
    <!-- Generator: Sketch 63 (92445) - https://sketch.com -->
    <title>天气icon_晴</title>
    <desc>Created with Sketch.</desc>
    <g id="页面-1" stroke="none" stroke-width="1" fill="none" fill-rule="evenodd">
        <g id="天气icon_晴" transform="translate(-8.000000, -8.000000)" fill-rule="nonzero">
            <rect id="矩形" fill="#000000" opacity="0" x="0" y="0" width="64" height="64"></rect>
            <path d="M53.9997499,34 L50.0002498,34 C48.8951119,34 48,33.1050001 48,32 C48,30.8960001 48.8951119,30 50.0002498,30 L53.9997499,30 C55.1048881,30 56,30.8960001 56,32 C56,33.1050001 55.1048881,34 53.9997499,34 L53.9997499,34 Z M45.5,20.3994507 C44.6992675,21.2001831 43.4012816,21.2001831 42.6005492,20.3994507 C41.7998169,19.5987184 41.7998169,18.3007323 42.6005492,17.5 L45.5,14.6005493 C46.3007322,13.7998169 47.5997434,13.7998169 48.3994508,14.6005493 C49.2001831,15.4012816 49.2001831,16.6992676 48.3994508,17.5 L45.5,20.3994507 L45.5,20.3994507 Z M32.0005001,44 C25.3726718,44 20,38.6281046 20,32 C20,25.3718953 25.3726718,20 32.0005001,20 C38.6283285,20 44,25.3718953 44,32 C44,38.6281046 38.6283285,44 32.0005001,44 L32.0005001,44 Z M32,24 C27.5814475,24 24,27.5814475 24,32 C24,36.4185526 27.5814475,40 32,40 C36.4185526,40 40,36.4185526 40,32 C40,27.5814475 36.4185526,24 32,24 L32,24 Z M32,16 C30.8960001,16 30,15.1048881 30,13.99975 L30,10.00025 C30,8.89511187 30.8960001,8 32,8 C33.1039999,8 34,8.89511187 34,10.00025 L34,13.99975 C34,15.1048881 33.1039999,16 32,16 L32,16 Z M17.5,20.3994507 L14.6005493,17.5 C13.7998169,16.6992676 13.7998169,15.4012816 14.6005493,14.6005493 C15.4012816,13.7998169 16.6992676,13.7998169 17.5,14.6005493 L20.3994507,17.5 C21.2001831,18.3007323 21.2001831,19.5987184 20.3994507,20.3994507 C19.5987184,21.2001831 18.3007321,21.2001831 17.5,20.3994507 L17.5,20.3994507 Z M16,32 C16,33.1050001 15.1048881,34 13.99975,34 L10.00025,34 C8.89511187,34 8,33.1050001 8,32 C8,30.8960001 8.89511187,30 10.00025,30 L13.99975,30 C15.1048881,30 16,30.8960001 16,32 L16,32 Z M17.5,42.6005492 C18.3007321,41.7998169 19.5987184,41.7998169 20.3994507,42.6005492 C21.2001831,43.4012816 21.2001831,44.6992675 20.3994507,45.5 L17.5,48.3994508 C16.6992676,49.2001831 15.4012816,49.2001831 14.6005493,48.3994508 C13.7998169,47.5997434 13.7998169,46.3007322 14.6005493,45.5 L17.5,42.6005492 L17.5,42.6005492 Z M32,48 C33.1039999,48 34,48.8951119 34,50.0002498 L34,53.9997499 C34,55.1048881 33.1039999,56 32,56 C30.8960001,56 30,55.1048881 30,53.9997499 L30,50.0002498 C30,48.8951119 30.8960001,48 32,48 L32,48 Z M45.5,42.6005492 L48.3994508,45.5 C49.2001831,46.3007322 49.2001831,47.5997434 48.3994508,48.3994508 C47.5997434,49.2001831 46.3007322,49.2001831 45.5,48.3994508 L42.6005492,45.5 C41.7998169,44.6992675 41.7998169,43.4012816 42.6005492,42.6005492 C43.4012816,41.7998169 44.6992675,41.7998169 45.5,42.6005492 L45.5,42.6005492 Z" id="形状" fill="#F2E018"></path>
        </g>
    </g>
</svg>