<?xml version="1.0" encoding="UTF-8"?>
<svg width="88px" height="82px" viewBox="0 0 88 82" version="1.1" xmlns="http://www.w3.org/2000/svg" xmlns:xlink="http://www.w3.org/1999/xlink">
    <!-- Generator: Sketch 63 (92445) - https://sketch.com -->
    <title>icon-线路量</title>
    <desc>Created with Sketch.</desc>
    <defs>
        <linearGradient x1="50%" y1="0%" x2="50%" y2="100%" id="linearGradient-1">
            <stop stop-color="#02FFFF" offset="0%"></stop>
            <stop stop-color="#00A7FF" offset="100%"></stop>
        </linearGradient>
    </defs>
    <g id="页面-1" stroke="none" stroke-width="1" fill="none" fill-rule="evenodd">
        <g id="今日交能_measurement" transform="translate(-1716.000000, -1884.000000)" fill="url(#linearGradient-1)" fill-rule="nonzero">
            <g id="数据" transform="translate(1648.000000, 1020.000000)">
                <g id="运行线路量" transform="translate(0.000000, 832.000000)">
                    <g id="icon-线路量" transform="translate(68.000000, 32.000000)">
                        <g id="路线" transform="translate(0.000000, 0.000000)">
                            <path d="M63.3962424,44.9595928 C66.3021706,53.9572464 74.332985,53.3025561 80.9311784,55.8517685 C87.6983277,58.4647469 93.7607514,70.9791919 73.4595424,78.4184213 C53.1525211,85.851789 31.5060355,75.5505376 31.5060355,75.5505376 L31.5060355,75.5505376 L35.7571607,70.3940501 C72.0384666,83.7602657 91.3147938,64.8436396 78.677426,60.41147 C55.9884624,53.7022618 58.4693736,44.9595928 58.4693736,44.9595928 L58.4693736,44.9595928 Z M21.8386908,16.6165366 C33.7845899,16.6165366 43.4816315,26.4856301 43.6743778,38.7359165 L43.6773019,39.1078584 C43.6831142,41.796247 43.2173313,44.3570243 42.3844955,46.7208798 C40.4510584,52.2655078 34.0683194,61.6571637 23.236358,74.8784998 C22.8971142,75.3016203 22.3826815,75.5480521 21.8386509,75.5480521 C21.2946204,75.5480521 20.7801877,75.3016203 20.4409438,74.8784998 C9.60324982,61.6398162 3.19718184,52.2422986 1.27536941,46.6803231 C0.430988552,44.2527017 4.38191705e-12,41.6860625 4.38191705e-12,39.1078584 C4.38191705e-12,26.6860127 9.78375066,16.6165366 21.8386908,16.6165366 Z M21.8386908,31.6165865 C17.8203774,31.6165865 14.5591006,34.9652893 14.5591006,39.1078584 C14.5591006,43.1674986 17.6912308,46.4704912 21.5985204,46.6009871 L21.8386908,46.6049921 C25.8627368,46.6049921 29.1123889,43.2503484 29.1240136,39.1078584 C29.1240136,34.9768543 25.8570041,31.6165865 21.8386908,31.6165865 Z M60.6939848,-2.30215846e-12 C68.8064107,-2.30215846e-12 75.3870876,6.77297422 75.3870876,15.1275025 C75.3870876,16.9409905 75.0784765,18.6616415 74.5193777,20.2607808 C73.214867,23.9920001 68.9170839,30.3071268 61.6374938,39.2006161 C61.4316377,39.4512153 61.1335147,39.6094043 60.8096509,39.6398833 C60.4857872,39.6703622 60.1631366,39.5705944 59.9136988,39.362843 L59.9136988,39.362843 L59.750635,39.2006161 C52.4477159,30.2839968 48.1556655,23.9572259 46.8512344,20.220224 C46.2863233,18.5920931 45.9951493,16.859877 45.9951493,15.1216408 C45.9951493,6.7671125 52.5758261,-2.30215846e-12 60.6939848,-2.30215846e-12 Z M60.6940644,10.0753378 C57.9859944,10.0753378 55.8021492,12.3233056 55.8021492,15.1159375 C55.8021492,17.9085695 57.9859944,20.1681023 60.6940644,20.1681023 C63.3961628,20.1681023 65.5859795,17.9085695 65.5859795,15.1159375 C65.5859795,12.3348706 63.3961628,10.0753378 60.6940644,10.0753378 Z" id="形状结合"></path>
                        </g>
                    </g>
                </g>
            </g>
        </g>
    </g>
</svg>