<?xml version="1.0" encoding="UTF-8"?>
<svg width="79px" height="79px" viewBox="0 0 79 79" version="1.1" xmlns="http://www.w3.org/2000/svg" xmlns:xlink="http://www.w3.org/1999/xlink">
    <!-- Generator: Sketch 63 (92445) - https://sketch.com -->
    <title>icon-车辆数</title>
    <desc>Created with Sketch.</desc>
    <defs>
        <linearGradient x1="50%" y1="0%" x2="50%" y2="100%" id="linearGradient-1">
            <stop stop-color="#02FFFF" offset="0%"></stop>
            <stop stop-color="#00A7FF" offset="100%"></stop>
        </linearGradient>
    </defs>
    <g id="页面-1" stroke="none" stroke-width="1" fill="none" fill-rule="evenodd">
        <g id="今日交能_measurement" transform="translate(-1720.000000, -1676.000000)" fill="url(#linearGradient-1)" fill-rule="nonzero">
            <g id="数据" transform="translate(1648.000000, 1020.000000)">
                <g id="路上车辆数" transform="translate(0.000000, 624.000000)">
                    <g id="icon-车辆数" transform="translate(72.000000, 32.000000)">
                        <path d="M39.1957312,1.06723519e-12 C59.5704591,1.06723519e-12 67.9010671,4.16588969 67.9010671,4.16588969 C70.2151249,5.32308127 72.1104484,8.38688374 72.1104484,10.9657678 L72.1104484,10.9657678 L72.1104484,18.8126288 L73.6751922,18.8126288 C76.2670337,18.8186571 78.3683387,20.9153357 78.3804431,23.5075204 L78.3804431,23.5075204 L78.3804431,28.2134328 C78.3743844,30.8099224 76.2713168,32.9132858 73.6751922,32.9193453 L73.6751922,32.9193453 L72.1104484,32.9193453 L72.1104484,65.0562086 C72.1039103,67.0480528 70.8470709,68.821107 68.9699414,69.4865992 L68.9699414,69.4865992 L68.9699414,72.1095668 C68.9699414,75.5728761 66.1627692,78.3804431 62.6999467,78.3804431 C59.2371243,78.3804431 56.4299521,75.5728761 56.4299521,72.1095668 L56.4299521,72.1095668 L56.4299521,69.762121 L21.950491,69.762121 L21.950491,72.1095668 C21.950491,75.5728761 19.1433188,78.3804431 15.6804963,78.3804431 C12.2176739,78.3804431 9.41050167,75.5728761 9.41050167,72.1095668 L9.41050167,72.1095668 L9.41050167,69.4865992 C7.53543894,68.8183754 6.2797942,67.0470064 6.26999467,65.0562086 L6.26999467,65.0562086 L6.26999467,32.9193453 L4.70525084,32.9193453 C2.10912627,32.9132858 0.00605865813,30.8099224 -8.02771183e-12,28.2134328 L-8.02771183e-12,28.2134328 L-8.02771183e-12,23.5075204 C0.0121044328,20.9153357 2.11340935,18.8186571 4.70525084,18.8126288 L4.70525084,18.8126288 L6.26999467,18.8126288 L6.26999467,10.9657678 C6.26999467,8.38688374 8.1653182,5.32308127 10.479376,4.16588969 C10.479376,4.16588969 18.8210033,1.06723519e-12 39.1957312,1.06723519e-12 Z M16.4628683,55.6443837 C14.2963221,55.6443837 12.5399893,57.4009634 12.5399893,59.5678142 C12.5399893,61.7346651 14.2963221,63.4912447 16.4628683,63.4912447 C18.6269022,63.4851906 20.3796939,61.7321524 20.3857472,59.5678142 C20.3857472,57.4009634 18.6294145,55.6443837 16.4628683,55.6443837 Z M61.9175748,55.6443837 C59.7510286,55.6443837 57.9946959,57.4009634 57.9946959,59.5678142 C57.9946959,61.7346651 59.7510286,63.4912447 61.9175748,63.4912447 C64.084121,63.4912447 65.8404537,61.7346651 65.8404537,59.5678142 C65.8404537,57.4009634 64.084121,55.6443837 61.9175748,55.6443837 Z M64.2757099,18.8126288 L14.1157525,18.8126288 C13.2497678,18.8126288 12.5460452,19.5115074 12.5399893,20.3775927 L12.5399893,20.3775927 L12.5399893,45.4610978 C12.5460452,46.3271832 13.2497678,47.0260617 14.1157525,47.0260617 L14.1157525,47.0260617 L64.2757099,47.0260617 C65.1373945,47.0200558 65.8344488,46.3229035 65.8404537,45.4610978 L65.8404537,45.4610978 L65.8404537,20.3775927 C65.8344488,19.515787 65.1373945,18.8186347 64.2757099,18.8126288 L64.2757099,18.8126288 Z M59.7273689,22.0102544 C60.4328183,22.0148988 61.0034872,22.5540248 61.0084034,23.2204816 L61.0084034,23.2204816 L61.0084034,42.6182089 L61.0009569,42.741578 C60.9316271,43.3499686 60.3887277,43.824082 59.7273689,43.8284362 L59.7273689,43.8284362 L18.6620955,43.8284362 L18.5308274,43.822203 C17.8833408,43.7603735 17.3766877,43.2461148 17.3720397,42.6182089 L17.3720397,42.6182089 L17.3720397,23.2204816 L17.3795557,23.0965161 C17.4495325,22.4852689 17.9974363,22.0102544 18.6620955,22.0102544 L18.6620955,22.0102544 Z M53.3004644,6.27087628 L25.0799787,6.27087628 C24.2182941,6.27688211 23.5212398,6.97403442 23.5152349,7.83584013 L23.5152349,7.83584013 L23.5152349,10.9657678 C23.5152349,11.8318744 24.2140151,12.5356959 25.0799787,12.5417526 L25.0799787,12.5417526 L53.3004644,12.5417526 C54.166428,12.5356959 54.8652082,11.8318744 54.8652082,10.9657678 L54.8652082,10.9657678 L54.8652082,7.83584013 C54.8592032,6.97403442 54.1621489,6.27688211 53.3004644,6.27087628 L53.3004644,6.27087628 Z" id="形状结合"></path>
                    </g>
                </g>
            </g>
        </g>
    </g>
</svg>