<?xml version="1.0" encoding="UTF-8"?>
<svg width="76px" height="76px" viewBox="0 0 76 76" version="1.1" xmlns="http://www.w3.org/2000/svg" xmlns:xlink="http://www.w3.org/1999/xlink">
    <!-- Generator: Sketch 63 (92445) - https://sketch.com -->
    <title>icon_自来水用户数</title>
    <desc>Created with Sketch.</desc>
    <g id="页面-1" stroke="none" stroke-width="1" fill="none" fill-rule="evenodd">
        <g id="今日交能" transform="translate(-7086.000000, -642.000000)">
            <g id="用户数" transform="translate(7027.000000, 583.000000)">
                <g id="1">
                    <g id="icon_自来水用户数" transform="translate(59.000000, 59.000000)">
                        <rect id="矩形" fill-opacity="0.5" fill="#001667" opacity="0.01" x="0" y="0" width="76" height="76"></rect>
                        <path d="M24.112,35.2231405 L29.6,35.2231405 C31.168,39.1570248 34.864,41.9338843 39.12,41.9338843 C43.376,41.9338843 47.072,39.1570248 48.64,35.2231405 L60.736,35.2231405 L60.736,26.5454545 L48.528,26.5454545 C47.072,23.1900826 44.16,20.7603306 40.576,20.2975207 L40.576,16.9421488 C41.024,16.7107438 41.36,16.3636364 41.696,16.0165289 C43.6,16.8264463 45.952,17.4049587 47.072,17.4049587 C49.088,17.4049587 50.656,15.785124 50.656,13.7024793 C50.656,11.6198347 49.088,10 47.072,10 C45.952,10 43.264,10.5785124 41.36,11.5041322 C41.136,11.3884298 41.024,11.1570248 40.8,11.0413223 C39.792,10.4628099 38.56,10.4628099 37.552,11.0413223 C37.328,11.1570248 37.104,11.3884298 36.88,11.6198347 C34.976,10.6942149 32.176,10 30.944,10 C28.928,10 27.36,11.6198347 27.36,13.7024793 C27.36,15.785124 28.928,17.4049587 30.944,17.4049587 C32.064,17.4049587 34.64,16.8264463 36.544,15.9008264 C36.768,16.2479339 36.992,16.4793388 37.328,16.7107438 L37.328,20.2975207 C33.968,20.8760331 31.168,23.3057851 29.712,26.5454545 L23.888,26.5454545 C19.408,26.5454545 15.824,30.3636364 15.824,34.9917355 L15.824,43.0909091 L24.112,43.0909091 L24.112,35.2231405 Z M66,50.0330579 L66,49.2231405 L65.216,49.2231405 C63.984,49.2231405 63.424,48.7603306 62.64,47.9504132 C61.632,47.0247934 60.512,45.9834711 58.16,45.9834711 C55.808,45.9834711 54.576,47.2561983 53.68,48.0661157 C52.896,48.8760331 52.336,49.338843 50.992,49.338843 C49.76,49.338843 49.2,48.8760331 48.416,48.0661157 C47.408,47.1404959 46.288,46.0991736 43.936,46.0991736 C41.584,46.0991736 40.352,47.3719008 39.456,48.1818182 C38.672,48.9917355 38.112,49.4545455 36.768,49.4545455 C35.536,49.4545455 34.976,48.9917355 34.192,48.1818182 C33.184,47.2561983 32.064,46.214876 29.712,46.214876 L28.928,46.214876 L28.928,48.2975207 L29.04,49.107438 L29.824,49.107438 C31.056,49.107438 31.616,49.5702479 32.4,50.3801653 C33.408,51.3057851 34.528,52.3471074 36.88,52.3471074 L36.992,52.3471074 C39.344,52.3471074 40.576,51.0743802 41.472,50.2644628 C42.256,49.4545455 42.816,48.9917355 44.16,48.9917355 C45.392,48.9917355 45.952,49.4545455 46.736,50.2644628 C47.744,51.1900826 48.864,52.231405 51.216,52.231405 C53.568,52.231405 54.8,50.9586777 55.696,50.1487603 C56.48,49.338843 57.04,48.8760331 58.384,48.8760331 C59.616,48.8760331 60.176,49.338843 60.96,50.1487603 C61.968,51.0743802 63.088,52.1157025 65.44,52.1157025 L66,52.1157025 L66,50.0330579 Z M31.952,56.8595041 C33.072,57.785124 34.528,58.8264463 37.104,58.8264463 C39.68,58.8264463 41.136,57.785124 42.368,56.8595041 C43.376,56.0495868 44.16,55.4710744 45.952,55.4710744 C47.744,55.4710744 48.528,56.0495868 49.536,56.8595041 C50.656,57.785124 52.112,58.8264463 54.688,58.8264463 L55.472,58.8264463 L55.472,55.9338843 L54.688,55.9338843 C52.896,55.9338843 52.112,55.3553719 51.104,54.5454545 C49.984,53.6198347 48.528,52.5785124 45.952,52.5785124 C43.264,52.5785124 41.92,53.6198347 40.8,54.5454545 C39.792,55.3553719 39.008,55.9338843 37.216,55.9338843 C35.424,55.9338843 34.64,55.3553719 33.632,54.5454545 C32.4,53.7355372 31.056,52.5785124 28.368,52.5785124 C25.68,52.5785124 24.336,53.6198347 23.216,54.5454545 C22.208,55.3553719 21.424,55.9338843 19.632,55.9338843 C17.84,55.9338843 17.056,55.3553719 16.048,54.5454545 C14.928,53.7355372 13.472,52.5785124 10.784,52.5785124 L10,52.5785124 L10,55.4710744 L10.784,55.4710744 C12.576,55.4710744 13.36,56.0495868 14.368,56.8595041 C15.488,57.785124 16.944,58.8264463 19.52,58.8264463 C22.208,58.8264463 23.552,57.785124 24.672,56.8595041 C25.68,56.0495868 26.464,55.4710744 28.256,55.4710744 C30.16,55.4710744 30.944,56.1652893 31.952,56.8595041 L31.952,56.8595041 Z M61.296,61.8347107 C60.288,60.9090909 59.168,59.7520661 56.816,59.7520661 C54.464,59.7520661 53.232,60.9090909 52.336,61.8347107 C51.552,62.6446281 50.992,63.107438 49.76,63.107438 C48.528,63.107438 47.968,62.6446281 47.072,61.8347107 C46.064,60.9090909 44.944,59.7520661 42.592,59.7520661 C40.24,59.7520661 39.008,60.9090909 38.112,61.8347107 C37.328,62.6446281 36.768,63.107438 35.536,63.107438 C34.304,63.107438 33.744,62.6446281 32.848,61.8347107 C31.84,60.9090909 30.72,59.7520661 28.368,59.7520661 L27.584,59.7520661 L27.584,62.6446281 L28.368,62.6446281 C29.6,62.6446281 30.16,63.107438 31.056,63.9173554 C32.064,64.8429752 33.184,66 35.536,66 C37.888,66 39.12,64.8429752 40.016,63.9173554 C40.8,63.107438 41.36,62.6446281 42.592,62.6446281 C43.824,62.6446281 44.384,63.107438 45.28,63.9173554 C46.288,64.8429752 47.408,66 49.76,66 C52.112,66 53.232,64.8429752 54.24,63.9173554 C55.024,63.107438 55.584,62.6446281 56.816,62.6446281 C58.048,62.6446281 58.608,63.107438 59.504,63.9173554 C60.512,64.8429752 61.632,66 63.984,66 L64.768,66 L64.768,63.107438 L63.984,63.107438 C62.64,63.2231405 62.08,62.6446281 61.296,61.8347107 L61.296,61.8347107 Z" id="形状" fill-opacity="0.9" fill="#FFFFFF" fill-rule="nonzero"></path>
                    </g>
                </g>
            </g>
        </g>
    </g>
</svg>