<?xml version="1.0" encoding="UTF-8"?>
<svg width="54px" height="46px" viewBox="0 0 54 46" version="1.1" xmlns="http://www.w3.org/2000/svg" xmlns:xlink="http://www.w3.org/1999/xlink">
    <!-- Generator: Sketch 63 (92445) - https://sketch.com -->
    <title>天气icon_大雪</title>
    <desc>Created with Sketch.</desc>
    <g id="页面-1" stroke="none" stroke-width="1" fill="none" fill-rule="evenodd">
        <g id="天气icon_大雪" transform="translate(-5.000000, -12.000000)" fill-rule="nonzero">
            <rect id="矩形" fill="#000000" opacity="0" x="0" y="0" width="64" height="64"></rect>
            <path d="M50.5399931,52.3508936 L48.4774266,51.1345598 L50.3813337,49.8653431 C51.0159712,49.3893862 51.2804017,48.3845894 50.7515407,47.6970955 C50.3284508,46.9567186 49.3764947,46.7980646 48.5832031,47.2740215 L47.3668164,48.0672813 L47.3668164,46.5336419 C47.3668164,45.634611 46.6264078,45 45.7273399,45 C44.9340431,45 44.1936345,45.634611 44.1936345,46.5336419 L44.1936345,48.384586 L42.7128172,47.4326721 C41.9724086,46.9567152 41.0204525,47.2211351 40.5444797,47.908629 C40.0685069,48.596123 40.2800491,49.6538026 41.0204578,50.1297596 L42.7657055,51.1874393 L40.703139,52.5624271 C40.0156187,53.0383841 39.7511829,54.0431808 40.2800491,54.7306748 C40.5973679,55.2066317 41.0733459,55.4710516 41.602207,55.4710516 C41.8666375,55.4710516 42.1839562,55.3123975 42.501275,55.1537488 L44.1936397,53.937415 L44.1936397,55.8412432 C44.1936397,56.6873912 44.9340483,57.427768 45.7273451,57.427768 C46.6264131,57.427768 47.3668217,56.6873912 47.3668217,55.8412432 L47.3668217,54.0960674 L48.8476389,55.0479812 C49.0591865,55.2066353 49.3764999,55.2595182 49.6409357,55.2595182 C50.222685,55.2595182 50.7515513,55.0479812 50.9630936,54.5720243 C51.4390611,53.8316526 51.2275135,52.8268505 50.5399931,52.3508936 L50.5399931,52.3508936 Z M36.5399931,52.3508936 L34.4774266,51.1345598 L36.3813337,49.8653431 C37.0159712,49.3893862 37.2804017,48.3845894 36.7515407,47.6970955 C36.3284508,46.9567186 35.3764947,46.7980646 34.5832031,47.2740215 L33.3668164,48.0672813 L33.3668164,46.5336419 C33.3668164,45.634611 32.6264078,45 31.7273399,45 C30.9340431,45 30.1936345,45.634611 30.1936345,46.5336419 L30.1936345,48.384586 L28.7128172,47.4326721 C27.9724086,46.9567152 27.0204525,47.2211351 26.5444797,47.908629 C26.0685069,48.596123 26.2800491,49.6538026 27.0204578,50.1297596 L28.7657055,51.1874393 L26.703139,52.5624271 C26.0156187,53.0383841 25.7511829,54.0431808 26.2800491,54.7306748 C26.5973679,55.2066317 27.0733459,55.4710516 27.602207,55.4710516 C27.8666375,55.4710516 28.1839562,55.3123975 28.501275,55.1537488 L30.1936397,53.937415 L30.1936397,55.8412432 C30.1936397,56.6873912 30.9340483,57.427768 31.7273451,57.427768 C32.6264131,57.427768 33.3668217,56.6873912 33.3668217,55.8412432 L33.3668217,54.0960674 L34.8476389,55.0479812 C35.0591865,55.2066353 35.3764999,55.2595182 35.6409357,55.2595182 C36.222685,55.2595182 36.7515513,55.0479812 36.9630936,54.5720243 C37.4390611,53.8316526 37.2275135,52.8268505 36.5399931,52.3508936 L36.5399931,52.3508936 Z M22.5399931,52.3508936 L20.4774266,51.1345598 L22.3813337,49.8653431 C23.0159712,49.3893862 23.2804017,48.3845894 22.7515407,47.6970955 C22.3284508,46.9567186 21.3764947,46.7980646 20.5832031,47.2740215 L19.3668164,48.0672813 L19.3668164,46.5336419 C19.3668164,45.634611 18.6264078,45 17.7273399,45 C16.9340431,45 16.1936345,45.634611 16.1936345,46.5336419 L16.1936345,48.384586 L14.7128172,47.4326721 C13.9724086,46.9567152 13.0204525,47.2211351 12.5444797,47.908629 C12.0685069,48.596123 12.2800491,49.6538026 13.0204578,50.1297596 L14.7657055,51.1874393 L12.703139,52.5624271 C12.0156187,53.0383841 11.7511829,54.0431808 12.2800491,54.7306748 C12.5973679,55.2066317 13.0733459,55.4710516 13.602207,55.4710516 C13.8666375,55.4710516 14.1839562,55.3123975 14.501275,55.1537488 L16.1936397,53.937415 L16.1936397,55.8412432 C16.1936397,56.6873912 16.9340483,57.427768 17.7273451,57.427768 C18.6264131,57.427768 19.3668217,56.6873912 19.3668217,55.8412432 L19.3668217,54.0960674 L20.8476389,55.0479812 C21.0591865,55.2066353 21.3764999,55.2595182 21.6409357,55.2595182 C22.222685,55.2595182 22.7515513,55.0479812 22.9630936,54.5720243 C23.4390611,53.8316526 23.2275135,52.8268505 22.5399931,52.3508936 L22.5399931,52.3508936 Z" id="形状" fill="#17A0E6"></path>
            <path d="M48.1737269,42.0011313 C48.1337269,42.0011313 48.0947269,41.9951313 48.0547269,41.9941313 L48.0547269,42.0011313 L14.0547269,42.0011313 L14.0547269,41.9561313 C8.75218398,41.4525562 4.77496245,36.8810777 5.00989068,31.55986 C5.24481891,26.2386424 9.6094363,22.0354505 14.9357269,22.0011313 C15.7918282,22.0041198 16.6438121,22.1197798 17.4697269,22.3451313 C19.3996534,16.1893742 25.1035284,12 31.5547269,12 C38.0059253,12 43.7098004,16.1893742 45.6397269,22.3451313 C46.4656416,22.1197798 47.3176255,22.0041198 48.1737269,22.0011313 C53.6967269,22.0011313 58.1737269,26.4781313 58.1737269,32.0011313 C58.1737269,37.5241313 53.6967269,42.0011313 48.1737269,42.0011313 Z" id="路径" fill-opacity="0.9" fill="#FFFFFF"></path>
        </g>
    </g>
</svg>