<?xml version="1.0" encoding="UTF-8"?>
<svg width="62px" height="39px" viewBox="0 0 62 39" version="1.1" xmlns="http://www.w3.org/2000/svg" xmlns:xlink="http://www.w3.org/1999/xlink">
    <!-- Generator: Sketch 63 (92445) - https://sketch.com -->
    <title>天气icon_阴</title>
    <desc>Created with Sketch.</desc>
    <g id="页面-1" stroke="none" stroke-width="1" fill="none" fill-rule="evenodd">
        <g id="天气icon_阴" transform="translate(-1.000000, -17.000000)" fill-rule="nonzero">
            <rect id="矩形" fill="#000000" opacity="0" x="0" y="0" width="64" height="64"></rect>
            <g id="编组-19" transform="translate(1.945273, 16.986360)" fill="#FFFFFF" fill-opacity="0.9">
                <path d="M43.1737269,39.0136403 C43.1337269,39.0136403 43.0947269,39.0076403 43.0547269,39.0066403 L43.0547269,39.0136403 L9.05472686,39.0136403 L9.05472686,38.9686403 C3.75218398,38.4650652 -0.225037549,33.8935867 0.00989067865,28.572369 C0.244818906,23.2511513 4.6094363,19.0479595 9.93572686,19.0136403 C10.7918282,19.0166288 11.6438121,19.1322888 12.4697269,19.3576403 C14.3996534,13.2018832 20.1035284,9.01250895 26.5547269,9.01250895 C33.0059253,9.01250895 38.7098004,13.2018832 40.6397269,19.3576403 C41.4656416,19.1322888 42.3176255,19.0166288 43.1737269,19.0136403 C48.6967269,19.0136403 53.1737269,23.4906403 53.1737269,29.0136403 C53.1737269,34.5366403 48.6967269,39.0136403 43.1737269,39.0136403 Z" id="路径"></path>
                <path d="M33.5781307,0.0136402888 C40.0293292,0.0136402888 45.7332042,4.20301453 47.6631307,10.3587716 C48.4890454,10.1334201 49.3410294,10.0177601 50.1971307,10.0147716 C55.7201307,10.0147716 60.1971307,14.4917716 60.1971307,20.0147716 C60.1971307,24.2389779 57.5781805,27.8512963 53.8753598,29.3166471 C54.0502309,28.5770468 54.1424038,27.8061111 54.1424038,27.0136403 C54.1424038,21.4906403 49.6654038,17.0136403 44.1424038,17.0136403 C43.2863025,17.0166288 42.4343186,17.1322888 41.6084038,17.3576403 C39.6784773,11.2018832 33.9746023,7.01250895 27.5234038,7.01250895 C24.8503282,7.01250895 22.3055596,7.73177712 20.1044113,9.01217036 L20.0547269,8.85464029 L20.080612,8.79670506 C22.42244,3.50494268 27.6888866,0.0136402888 33.5781307,0.0136402888 Z" id="形状结合"></path>
            </g>
        </g>
    </g>
</svg>