<?xml version="1.0" encoding="UTF-8"?>
<svg width="54px" height="45px" viewBox="0 0 54 45" version="1.1" xmlns="http://www.w3.org/2000/svg" xmlns:xlink="http://www.w3.org/1999/xlink">
    <!-- Generator: Sketch 63 (92445) - https://sketch.com -->
    <title>天气icon_霾</title>
    <desc>Created with Sketch.</desc>
    <g id="页面-1" stroke="none" stroke-width="1" fill="none" fill-rule="evenodd">
        <g id="天气icon_霾" transform="translate(-5.000000, -12.000000)" fill-rule="nonzero">
            <rect id="矩形" fill="#000000" opacity="0" x="0" y="0" width="64" height="64"></rect>
            <path d="M14.1746667,45 L24.4813333,45 C25.6823686,45 26.656,45.9736314 26.656,47.1746667 C26.656,48.3757019 25.6823686,49.3493334 24.4813333,49.3493334 L14.1746667,49.3493334 C12.9736314,49.3493334 12,48.3757019 12,47.1746667 C12,45.9736314 12.9736314,45 14.1746667,45 Z M31.7613333,45 L49.3933333,45 C50.5943686,45 51.568,45.9736314 51.568,47.1746667 C51.568,48.3757019 50.5943686,49.3493334 49.3933333,49.3493334 L31.76,49.3493334 C30.5589648,49.3493334 29.5853333,48.3757019 29.5853333,47.1746667 C29.5853333,45.9736314 30.5589648,45 31.76,45 L31.7613333,45 Z M17.104,52.248 L30.344,52.248 C31.5450352,52.248 32.5186667,53.2216314 32.5186667,54.4226667 C32.5186667,55.6237019 31.5450352,56.5973334 30.344,56.5973334 L17.1066667,56.5973334 C15.9056314,56.5973334 14.932,55.6237019 14.932,54.4226667 C14.932,53.2216314 15.9056314,52.248 17.1066667,52.248 L17.104,52.248 Z M37.6213333,52.248 L46.4613333,52.248 C47.6623686,52.248 48.636,53.2216314 48.636,54.4226667 C48.636,55.6237019 47.6623686,56.5973334 46.4613333,56.5973334 L37.6213333,56.5973334 C36.4202981,56.5973334 35.4466666,55.6237019 35.4466666,54.4226667 C35.4466666,53.2216314 36.4202981,52.248 37.6213333,52.248 Z" id="形状" fill-opacity="0.9" fill="#FFFFFF"></path>
            <path d="M48.1737269,42.0011313 C48.1337269,42.0011313 48.0947269,41.9951313 48.0547269,41.9941313 L48.0547269,42.0011313 L14.0547269,42.0011313 L14.0547269,41.9561313 C8.75218398,41.4525562 4.77496245,36.8810777 5.00989068,31.55986 C5.24481891,26.2386424 9.6094363,22.0354505 14.9357269,22.0011313 C15.7918282,22.0041198 16.6438121,22.1197798 17.4697269,22.3451313 C19.3996534,16.1893742 25.1035284,12 31.5547269,12 C38.0059253,12 43.7098004,16.1893742 45.6397269,22.3451313 C46.4656416,22.1197798 47.3176255,22.0041198 48.1737269,22.0011313 C53.6967269,22.0011313 58.1737269,26.4781313 58.1737269,32.0011313 C58.1737269,37.5241313 53.6967269,42.0011313 48.1737269,42.0011313 Z" id="路径" fill-opacity="0.9" fill="#FFFFFF"></path>
        </g>
    </g>
</svg>